<svg width="78" height="28" viewBox="0 0 78 28" fill="none" xmlns="http://www.w3.org/2000/svg">
<path d="M76.8516 6.08594L69.1758 28H62.0859L69.8008 5.48047H63.6094L66.207 0.519531H73.8438C74.8594 0.519531 75.6732 0.8125 76.2852 1.39844C76.9362 2.02344 77.2617 2.86328 77.2617 3.91797C77.2617 4.58203 77.125 5.30469 76.8516 6.08594Z" fill="white"/>
<path d="M60.9727 12.5508L59.1562 17.5117H50.5234L47.3203 26.2422H41.8906L45.0547 17.5117H36.4023L38.1992 12.5508H46.8516L50.0938 3.83984H55.5625L52.3203 12.5508H60.9727Z" fill="white"/>
<path d="M34.1953 6.08594L26.5195 28H19.4297L27.1445 5.48047H20.9531L23.5508 0.519531H31.1875C32.2031 0.519531 33.0169 0.8125 33.6289 1.39844C34.2799 2.02344 34.6055 2.86328 34.6055 3.91797C34.6055 4.58203 34.4688 5.30469 34.1953 6.08594Z" fill="white"/>
<path d="M15.5625 6.08594L7.88672 28H0.796875L8.51172 5.48047H2.32031L4.91797 0.519531H12.5547C13.5703 0.519531 14.3841 0.8125 14.9961 1.39844C15.6471 2.02344 15.9727 2.86328 15.9727 3.91797C15.9727 4.58203 15.8359 5.30469 15.5625 6.08594Z" fill="white"/>
</svg>
