<svg width="24" height="21" viewBox="0 0 24 21" fill="none" xmlns="http://www.w3.org/2000/svg">
<path d="M1.18037 8.65622C0.829719 8.34708 1.02019 7.78821 1.49448 7.7346L8.21491 6.97469C8.40821 6.95284 8.57611 6.83712 8.65764 6.66861L11.4922 0.810132C11.6923 0.396676 12.3088 0.396596 12.5089 0.810052L15.3435 6.66849C15.425 6.83699 15.5918 6.95303 15.7851 6.97488L22.5059 7.7346C22.9802 7.78821 23.1701 8.34724 22.8195 8.65638L17.8514 13.0371C17.7085 13.163 17.6449 13.3506 17.6828 13.5326L19.0013 19.8605C19.0944 20.3071 18.5959 20.6531 18.1791 20.4307L12.2739 17.2787C12.104 17.1881 11.8977 17.1885 11.7278 17.2791L5.82196 20.4299C5.4052 20.6523 4.90573 20.3071 4.99881 19.8605L6.31752 13.533C6.35546 13.351 6.29199 13.163 6.14908 13.037L1.18037 8.65622Z" fill="#F0F3BD" stroke="#F0F3BD" stroke-linecap="round" stroke-linejoin="round"/>
</svg>
