<svg width="14" height="13" viewBox="0 0 14 13" fill="none" xmlns="http://www.w3.org/2000/svg">
<path d="M1.09839 5.48592C0.90712 5.31589 1.01102 5.00852 1.26972 4.97903L4.93541 4.56108C5.04084 4.54906 5.13243 4.48542 5.1769 4.39274L6.72303 1.17057C6.83215 0.943172 7.16845 0.943128 7.27757 1.17053L8.82371 4.39267C8.86818 4.48535 8.95916 4.54917 9.0646 4.56118L12.7305 4.97903C12.9892 5.00852 13.0928 5.31598 12.9015 5.48601L10.1917 7.89538C10.1137 7.96467 10.079 8.06782 10.0997 8.16793L10.8189 11.6483C10.8697 11.8939 10.5977 12.0842 10.3704 11.9619L7.14939 10.2283C7.05674 10.1784 6.94418 10.1787 6.85153 10.2285L3.63016 11.9615C3.40283 12.0838 3.1304 11.8939 3.18117 11.6483L3.90047 8.16814C3.92116 8.06804 3.88654 7.96465 3.80859 7.89536L1.09839 5.48592Z" stroke="#F0F3BD" stroke-width="0.5" stroke-linecap="round" stroke-linejoin="round"/>
</svg>
